<svg xmlns="http://www.w3.org/2000/svg" id="iconprecision" width="101.528" height="86.579" viewBox="0 0 101.528 86.579">
    <defs>
        <style>
            .cls-1{fill:#fece34}
        </style>
    </defs>
    <path id="Path_50" d="M107.883 141.756a.179.179 0 0 1-.055-.05 1.171 1.171 0 0 0-1.221-.789h-5.772a28.465 28.465 0 0 0-27.223-27.208v-5.757a1.117 1.117 0 0 0-.933-1.132 1.142 1.142 0 0 0-1.3.774 1.985 1.985 0 0 0-.065.541v5.589a28.34 28.34 0 0 0-10.969 2.7c-.035-.268-.065-.5-.1-.735a1.147 1.147 0 0 0-1.712-.883 31.8 31.8 0 0 1-8.1 3.162 45.189 45.189 0 0 1-10.661 1.395 57.849 57.849 0 0 1-6.224-.179 40.028 40.028 0 0 1-14.1-3.752c-.372-.184-.73-.392-1.087-.6a1.161 1.161 0 0 0-1.772.878 22.618 22.618 0 0 0-.109 5.554 14.694 14.694 0 0 0 3.638 8.576 3.971 3.971 0 0 1 .958 1.757 22.245 22.245 0 0 0 4.909 9.346 19.942 19.942 0 0 0 11.187 6.378 8.219 8.219 0 0 0 4-.347 20.4 20.4 0 0 0 13.326-11.743 25.694 25.694 0 0 0 1.489-4.467.72.72 0 0 1 .154-.308 13.143 13.143 0 0 0 3.335-5.281 17.917 17.917 0 0 0 .993-5.981.313.313 0 0 1 .189-.342 26.047 26.047 0 0 1 10.457-2.789h.185v5.822a1.206 1.206 0 0 0 .462 1.067 1.092 1.092 0 0 0 1.221.114 1.077 1.077 0 0 0 .62-1.022v-6.015a26.16 26.16 0 0 1 24.915 24.91h-5.767a1.166 1.166 0 0 0-1.261 1.107 1.137 1.137 0 0 0 1.186 1.181h5.8c-.258 12.8-11.137 24.429-24.861 24.866v-6.179a1.144 1.144 0 0 0-2.238-.313 1.986 1.986 0 0 0-.06.546v5.953c-.5-.055-.948-.124-1.419-.159-.218 0-.278-.114-.323-.308a41.224 41.224 0 0 0-6.338-14.046 36.514 36.514 0 0 0-12.319-10.989 1.156 1.156 0 0 0-1.762 1.042v5.747l-1.985-.67-4.01-1.355a1.161 1.161 0 1 0-.735 2.184l6.948 2.362.521.174a1.151 1.151 0 0 0 1.544-1.137v-5.33c.333.213.64.4.938.6a34.638 34.638 0 0 1 11.51 12.9 39.706 39.706 0 0 1 3.976 11.544c.144.819.218 1.653.328 2.482a1.147 1.147 0 0 0 1.36.993 1.112 1.112 0 0 0 .928-1.191c-.079-.829-.2-1.658-.308-2.482a.5.5 0 0 0-.025-.179l1.181.109v5.469a1.161 1.161 0 0 0 .933 1.276 1.127 1.127 0 0 0 1.365-1.1v-5.608a28.446 28.446 0 0 0 27.213-27.208h5.549a1.365 1.365 0 0 0 1.489-.869zm-49.726-24.112v2.156a14.443 14.443 0 0 1-1.985 7.008 8.755 8.755 0 0 1-1.757 2.085 1.559 1.559 0 0 0-.561.874 23.774 23.774 0 0 1-1.553 4.73 18.532 18.532 0 0 1-3.41 5.187 18.041 18.041 0 0 1-8.437 5.092 6.06 6.06 0 0 1-2.869.273 17.739 17.739 0 0 1-9.574-5.311 20.4 20.4 0 0 1-4.924-9.584 2.338 2.338 0 0 0-.645-1.3 10.1 10.1 0 0 1-1.36-1.489 12.7 12.7 0 0 1-2.144-5.271 20.081 20.081 0 0 1-.248-4.154 1.533 1.533 0 0 1 .03-.223l5.157 1.985v.357a15.942 15.942 0 0 0 .392 4.338 7.891 7.891 0 0 0 2.129 3.886A7.317 7.317 0 0 0 32.641 130a20.638 20.638 0 0 0 5.42-1.6 1.216 1.216 0 0 1 .794.025c.774.258 1.519.6 2.293.854a12.408 12.408 0 0 0 5.867.715 6.323 6.323 0 0 0 3.524-1.737 7.589 7.589 0 0 0 1.772-2.889 14.349 14.349 0 0 0 .715-4.189c0-.437-.04-.878-.045-1.315a.308.308 0 0 1 .139-.238c.5-.179.993-.323 1.489-.5.878-.338 1.747-.695 2.621-1.047.27-.132.565-.261.927-.435zm-31.968 2.68a54.953 54.953 0 0 0 24.469 0 .288.288 0 0 1 0 .079 11.7 11.7 0 0 1-.561 4.159 4.429 4.429 0 0 1-2.789 2.978 6.546 6.546 0 0 1-2.978.169 18.057 18.057 0 0 1-4.616-1.4 3.261 3.261 0 0 0-2.64 0c-.4.169-.789.342-1.2.5a13.048 13.048 0 0 1-4.874.993 4.258 4.258 0 0 1-3.971-2.387 8.785 8.785 0 0 1-.878-3.474c.015-.536.015-1.077.015-1.608z" class="cls-1" transform="translate(-6.355 -90.585)"/>
    <path id="Path_51" d="M133.532 74.13c-.407.094-.814.179-1.221.278a8.115 8.115 0 0 0-2.978 1.489 11.2 11.2 0 0 0-2.864 3.281.61.61 0 0 1-.238.208c-.62.3-1.241.606-1.871.893a.447.447 0 0 1-.347 0 1.181 1.181 0 0 0-1.846.933.839.839 0 0 1-.4.675 21.342 21.342 0 0 0-3.911 3.569 20.592 20.592 0 0 0-3.941 6.889c-.194.586-.333 1.191-.5 1.787a1.345 1.345 0 0 0 .4 1.395 15.033 15.033 0 0 0 2.482 2.015 20.389 20.389 0 0 0 3.708 1.821 29.779 29.779 0 0 0 4.313 1.261c1.127.243 2.263.412 3.4.566.953.134 1.911.2 2.869.283.7.055 1.4.089 2.1.109h2.482c.308 0 .62.045.928.04.566 0 1.132 0 1.7-.055.913-.06 1.831-.114 2.74-.228 1.077-.129 2.144-.318 3.216-.5a29.66 29.66 0 0 0 4.963-1.271 19.957 19.957 0 0 0 4.546-2.209 13.966 13.966 0 0 0 2.4-2.025 1.345 1.345 0 0 0 .249-1.334 18.031 18.031 0 0 0-1.231-3.559 20.934 20.934 0 0 0-2.283-3.851 18.648 18.648 0 0 0-2.437-2.75c-.824-.74-1.707-1.41-2.576-2.094a1.151 1.151 0 0 1-.526-.769 1.105 1.105 0 0 0-1.623-.784.467.467 0 0 1-.347 0c-.635-.278-1.261-.581-1.891-.878a.347.347 0 0 1-.119-.134 12.22 12.22 0 0 0-1.985-2.551 9.39 9.39 0 0 0-2.433-1.73 8.343 8.343 0 0 0-2.412-.715.724.724 0 0 1-.164-.06zm13.425 10.13c.382.328.744.61 1.072.933.635.625 1.29 1.241 1.866 1.921a17.738 17.738 0 0 1 1.985 2.864 16.647 16.647 0 0 1 1.648 4.015.4.4 0 0 1-.079.328 6.59 6.59 0 0 1-.725.615 16.82 16.82 0 0 1-4.705 2.432 31.162 31.162 0 0 1-5.1 1.285 42.873 42.873 0 0 1-4.566.531c-.759.05-1.489.1-2.273.109-1.216 0-2.437 0-3.658-.04a14.359 14.359 0 0 1-1.727-.069c-.993-.089-1.985-.194-2.948-.338-1.062-.159-2.124-.337-3.171-.571a25.283 25.283 0 0 1-4.7-1.489 15.332 15.332 0 0 1-3.737-2.263.65.65 0 0 1-.233-.814 18.86 18.86 0 0 1 5.2-8.308c.337-.313.695-.61 1.072-.943l.045.194a10.954 10.954 0 0 0 1.35 3.906 26.948 26.948 0 0 0 1.683 2.417 1.072 1.072 0 0 0 1.325.293 1.156 1.156 0 0 0 .675-1.186 1.628 1.628 0 0 0-.5-.874 10.214 10.214 0 0 1-2.4-6.04.333.333 0 0 1 .208-.367c.993-.5 1.96-.993 2.953-1.464a1.668 1.668 0 0 0 .824-.764 8.09 8.09 0 0 1 3.6-3.6 6.631 6.631 0 0 1 3.067-.526 5.728 5.728 0 0 1 2.541.6 8.164 8.164 0 0 1 3.425 3.474 1.563 1.563 0 0 0 .73.725c.968.452 1.926.938 2.884 1.419a.283.283 0 0 1 .134.223c-.074.69-.129 1.39-.263 2.07a7.817 7.817 0 0 1-1.052 2.64 20.808 20.808 0 0 1-1.271 1.812 1.181 1.181 0 0 0 .169 1.687 1.156 1.156 0 0 0 1.573-.159c.541-.744 1.1-1.489 1.573-2.273a11.654 11.654 0 0 0 1.506-4.405z" class="cls-1" transform="translate(-102.605 -74.13)"/>
    <path id="Path_52" d="M181.611 181.763c0 1.762.03 3.474 0 5.2a1.221 1.221 0 0 0 1.717 1.231c2.457-.864 4.928-1.678 7.4-2.511a1.156 1.156 0 1 0-.73-2.194l-5.762 1.951-.3.1v-5.74a1.147 1.147 0 0 0-1.747-1.057 36.466 36.466 0 0 0-7.619 5.554 38.534 38.534 0 0 0-9.519 14.483 41.14 41.14 0 0 0-2.263 8.636 17.316 17.316 0 0 0-.179 1.752 1.1 1.1 0 0 0 .993 1.142 1.122 1.122 0 0 0 1.266-.958c.184-1.191.3-2.392.541-3.569a37.876 37.876 0 0 1 9.222-18.309 33.516 33.516 0 0 1 6.8-5.594z" class="cls-1" transform="translate(-162.601 -126.736)"/>
    <path id="Path_53" d="M87.725 176.843a.993.993 0 1 0-.993.993.993.993 0 0 0 .993-.993z" class="cls-1" transform="translate(-20.632 -125.364)"/>
    <path id="Path_54" d="M136.2 138.272a3.39 3.39 0 0 1-1.881 3.077 1.235 1.235 0 0 0-.342.223.69.69 0 0 0 .8 1.087 4.641 4.641 0 0 0 2.735-3.618 5.629 5.629 0 0 0 .06-1.042.67.67 0 0 0-.71-.68.7.7 0 0 0-.67.735c.008.099.008.146.008.218z" class="cls-1" transform="translate(-94.343 -105.956)"/>
    <path id="Path_55" d="M171.178 138.312a4.73 4.73 0 0 0 2.715 4.3.695.695 0 1 0 .615-1.231 3.41 3.41 0 0 1-1.951-3.286.7.7 0 0 0-.67-.779.69.69 0 0 0-.71.715c-.004.123.001.192.001.281z" class="cls-1" transform="translate(-150.292 -105.957)"/>
</svg>
