<svg xmlns="http://www.w3.org/2000/svg" width="90.117" height="83.572" viewBox="0 0 90.117 83.572">
    <defs>
        <style>
            .cls-1{fill:#fece34}
        </style>
    </defs>
    <g id="icon_INCREASE" transform="translate(0 .021)">
        <path id="Path_63" d="M126.971 191.552c-.128-.077-.261-.143-.384-.23a1.024 1.024 0 0 1-.512-.844 20 20 0 0 0-.793-5.046 38.725 38.725 0 0 0-5.3-12.175 34.151 34.151 0 0 0-10.354-10.157l-.159-.092v5.251a1.121 1.121 0 0 1-.814 1.223 1.535 1.535 0 0 1-.778 0c-2.5-.829-4.99-1.684-7.482-2.528a1.157 1.157 0 1 1 .732-2.19l5.839 1.96.2.056v-5.68a1.151 1.151 0 0 1 1.8-1.049 36.6 36.6 0 0 1 13.869 13.4 41.227 41.227 0 0 1 3.137 6.448c0 .046.041.1.087.2v-21.243h-9.672a1.146 1.146 0 0 1-1.192-.711 1.172 1.172 0 0 1 .317-1.331l10.235-10.747 7.953-8.337.246-.266a1.141 1.141 0 0 1 1.689 0c.993 1.024 1.975 2.078 2.968 3.117l4.314 4.529q3.582 3.746 7.129 7.487l4.058 4.253a1.151 1.151 0 0 1-.159 1.858 1.474 1.474 0 0 1-.711.169h-9.693v31.243a1.443 1.443 0 0 1-.266.988 1.172 1.172 0 0 1-1.3.353 1.126 1.126 0 0 1-.737-1.111v-32.528a1.223 1.223 0 0 1 1.29-1.274h8.127l-15.864-16.638-15.865 16.638h8.055a1.264 1.264 0 0 1 1.382 1.4v27.124c0 1.474 0 2.943.026 4.417 0 .266.046.512.061.793a1.136 1.136 0 0 1-.711 1.192c-.026 0-.046.041-.067.061z" class="cls-1" transform="translate(-64.387 -108.001)"/>
        <path id="Path_64" d="M30.86 211.489c.051-.281.113-.563.154-.844a40.941 40.941 0 0 1 2.881-10.363 38.454 38.454 0 0 1 7.272-11.382 36.376 36.376 0 0 1 9.212-7.165 1.151 1.151 0 0 1 1.786 1.064v5.691l1.766-.573 4.268-1.448a1.141 1.141 0 0 1 1.535.716 1.157 1.157 0 0 1-.793 1.474l-7.426 2.513a1.167 1.167 0 0 1-1.648-1.208V184.7c-.435.281-.834.537-1.223.8a34.677 34.677 0 0 0-11.259 12.825 39.406 39.406 0 0 0-3.741 10.575c-.21 1.064-.338 2.139-.466 3.214a1.356 1.356 0 0 1-.829 1.131h-.6a1.315 1.315 0 0 1-.885-.885z" class="cls-1" transform="translate(-30.86 -129.704)"/>
        <path id="Path_65" d="M50.29 131.3c.092-1.024.164-2.011.281-3.014a1.136 1.136 0 0 1 1.714-.88 32.2 32.2 0 0 0 8.26 3.2 45.379 45.379 0 0 0 10.466 1.351 56.774 56.774 0 0 0 6.858-.241 39.365 39.365 0 0 0 13.593-3.746c.328-.164.645-.348.962-.512a1.162 1.162 0 0 1 1.8.9 21.785 21.785 0 0 1 0 6.4 14.273 14.273 0 0 1-3.582 7.738 3.8 3.8 0 0 0-.921 1.714 22.328 22.328 0 0 1-4.529 8.91 20 20 0 0 1-11.5 6.791 8.107 8.107 0 0 1-3.782-.276 20.235 20.235 0 0 1-9.212-5.353 21.571 21.571 0 0 1-5.056-8.3c-.3-.875-.512-1.776-.788-2.666a.655.655 0 0 0-.148-.276 13.756 13.756 0 0 1-3.823-6.95 20.348 20.348 0 0 1-.593-4.79zm2.416-1.024a1.6 1.6 0 0 1-.041.2 16.7 16.7 0 0 0 .875 6.617 10.537 10.537 0 0 0 3.014 4.534 1.387 1.387 0 0 1 .394.7A23.962 23.962 0 0 0 59 148.123a17.948 17.948 0 0 0 11.356 9.243 6.218 6.218 0 0 0 3.152.23 17.912 17.912 0 0 0 10.338-6.479 20.793 20.793 0 0 0 3.838-8.188 3.014 3.014 0 0 1 .926-1.653 10.445 10.445 0 0 0 2.79-4.606 15.661 15.661 0 0 0 .742-4.637v-1.7l-5.184 2.006v1.566a12.482 12.482 0 0 1-.8 4.365 6.607 6.607 0 0 1-3.736 3.941 8.644 8.644 0 0 1-4.56.384 19.847 19.847 0 0 1-4.908-1.489 1.284 1.284 0 0 0-1.136 0 7.837 7.837 0 0 1-.809.338 15.65 15.65 0 0 1-6.023 1.249 6.653 6.653 0 0 1-4.493-1.668 7.564 7.564 0 0 1-2.093-3.439 14.376 14.376 0 0 1-.548-5.066.292.292 0 0 0-.235-.348c-1.126-.394-2.247-.8-3.357-1.223-.532-.194-1.044-.445-1.556-.681zm7.426 2.651v.972a10.363 10.363 0 0 0 .578 3.347 4.375 4.375 0 0 0 2.789 2.907 6.525 6.525 0 0 0 2.948.164 18.592 18.592 0 0 0 4.678-1.428 3.2 3.2 0 0 1 2.559 0c.42.169.829.353 1.249.512a13.208 13.208 0 0 0 4.8 1.024 4.294 4.294 0 0 0 4.191-2.712 10.977 10.977 0 0 0 .763-4.759 55.076 55.076 0 0 1-24.55-.036z" class="cls-1" transform="translate(-40.346 -103.195)"/>
        <path id="Path_66" d="M83.683 86.463a1.172 1.172 0 0 1 1.305-.194 1.111 1.111 0 0 1 .655 1 .942.942 0 0 0 .45.747 20.982 20.982 0 0 1 8.076 11.259c.107.368.179.747.261 1.126a1.121 1.121 0 0 1-.312 1.059 14.5 14.5 0 0 1-4.094 3 27.687 27.687 0 0 1-7.487 2.421 44.758 44.758 0 0 1-8.055.788 59.366 59.366 0 0 1-6.878-.23 34.329 34.329 0 0 1-10.389-2.539 16.341 16.341 0 0 1-4.775-3.163 1.658 1.658 0 0 1-.512-1.76 20.215 20.215 0 0 1 2.646-6.105 21.448 21.448 0 0 1 6.054-6.172.609.609 0 0 0 .281-.435 1.152 1.152 0 0 1 1.781-.937.348.348 0 0 0 .246-.031c.6-.276 1.2-.558 1.786-.85a.732.732 0 0 0 .278-.273 10.568 10.568 0 0 1 4.1-4.043 7.989 7.989 0 0 1 3.582-.906 9.289 9.289 0 0 1 3.628.512 9.483 9.483 0 0 1 4.519 3.772 3.009 3.009 0 0 0 1.535 1.32 11.651 11.651 0 0 1 1.32.635zm-22.84 3.946l-.164.123a19.161 19.161 0 0 0-3.429 3.582 18.306 18.306 0 0 0-2.927 5.911.363.363 0 0 0 .128.45c.435.322.839.691 1.285 1.024a20.066 20.066 0 0 0 6.484 2.656 46.31 46.31 0 0 0 12.134 1.208 46 46 0 0 0 5.629-.425 32.692 32.692 0 0 0 6.74-1.586 15.721 15.721 0 0 0 5.118-2.881.445.445 0 0 0 .148-.512 18.649 18.649 0 0 0-5.118-8.352c-.374-.358-.773-.691-1.192-1.064-.031.138-.046.22-.061.3a12.743 12.743 0 0 1-3 6.218 1.157 1.157 0 1 1-1.718-1.534 10.235 10.235 0 0 0 2.559-6.274.307.307 0 0 0-.194-.343c-1.024-.512-2-1.024-3-1.484a1.366 1.366 0 0 1-.7-.619 9.668 9.668 0 0 0-1.5-2.134 6.53 6.53 0 0 0-7.2-1.771 7.306 7.306 0 0 0-4.033 3.767 1.653 1.653 0 0 1-.8.747c-.921.43-1.827.9-2.743 1.336a.307.307 0 0 0-.194.348 6.784 6.784 0 0 0 .067.85 10.4 10.4 0 0 0 2.5 5.537 1.158 1.158 0 1 1-1.76 1.5 12.646 12.646 0 0 1-2.559-4.606c-.203-.657-.336-1.307-.5-1.972z" class="cls-1" transform="translate(-41.109 -80.23)"/>
        <path id="Path_67" d="M111.686 142.528a4.729 4.729 0 0 1-2.748 4.309.681.681 0 0 1-.778-.067.594.594 0 0 1-.22-.711.86.86 0 0 1 .368-.445 3.439 3.439 0 0 0 2-3.362.676.676 0 0 1 .686-.732.691.691 0 0 1 .691.706c.006.102.001.205.001.302z" class="cls-1" transform="translate(-68.472 -110.164)"/>
        <path id="Path_68" d="M72.316 141.518a.676.676 0 0 1 .676.757 3.613 3.613 0 0 0 .629 2.211 3.5 3.5 0 0 0 1.341 1.116.7.7 0 1 1-.6 1.244 4.637 4.637 0 0 1-2.656-3.347 6.7 6.7 0 0 1-.107-1.285.67.67 0 0 1 .716-.7z" class="cls-1" transform="translate(-50.75 -110.162)"/>
    </g>
</svg>
