<svg xmlns="http://www.w3.org/2000/svg" width="130.497" height="88.67" viewBox="0 0 130.497 88.67">
    <defs>
        <style>
            .cls-1{fill:#fece34}
        </style>
    </defs>
    <g id="iconMEETING" transform="translate(.006)">
        <path id="Path_56" d="M184.02 139.362c-.055.292-.118.577-.158.869a19.627 19.627 0 0 1-3.467 8.585 27.785 27.785 0 0 1-8.617 7.827 39.183 39.183 0 0 1-12.558 4.739 45.565 45.565 0 0 1-10.267.853 43.5 43.5 0 0 1-13.537-2.48.474.474 0 0 0-.521.087 34.989 34.989 0 0 1-7.053 4.107 64.173 64.173 0 0 1-9.723 3.475 1.224 1.224 0 0 1-1.208-2.093 26.4 26.4 0 0 0 6.6-10.923c.111-.371.174-.79.292-1.129a.387.387 0 0 0-.15-.45 23.56 23.56 0 0 1-4.9-6.255 18.632 18.632 0 0 1-2.275-9.407 19.248 19.248 0 0 1 3.562-10.576 27.643 27.643 0 0 1 8.411-7.764 38.78 38.78 0 0 1 12.89-4.928 45.273 45.273 0 0 1 7.511-.837 43.345 43.345 0 0 1 19.453 3.759 31.2 31.2 0 0 1 9.533 6.563 21.19 21.19 0 0 1 5.529 9.43c.261 1 .387 2.038.577 3.064a1.15 1.15 0 0 0 .055.15zm-62.529 24.445l.2-.055c1.524-.592 3.064-1.145 4.565-1.793a31.3 31.3 0 0 0 7.843-4.636 1.185 1.185 0 0 1 1.264-.174 40.77 40.77 0 0 0 13.119 2.638 42.65 42.65 0 0 0 12.8-1.4 33.582 33.582 0 0 0 12.305-5.995 21.562 21.562 0 0 0 6.437-7.9 15.851 15.851 0 0 0 1.224-10.031 18.165 18.165 0 0 0-4.3-8.4 27.92 27.92 0 0 0-9.225-6.816 40.518 40.518 0 0 0-17.242-3.791 42.176 42.176 0 0 0-9.549 1 35.96 35.96 0 0 0-11.713 4.739 24.4 24.4 0 0 0-7.574 7.329 16.7 16.7 0 0 0-2.764 8.325 16.246 16.246 0 0 0 1.99 8.577 21.641 21.641 0 0 0 4.9 6.058 1.43 1.43 0 0 1 .529 1.422 2.656 2.656 0 0 1-.087.49 24.816 24.816 0 0 1-3.238 8.024c-.49.79-1.027 1.58-1.58 2.369v.047z" class="cls-1" transform="translate(-53.529 -107.216)"/>
        <path id="Path_57" d="M75.017 105.67c.34.071.679.126 1.019.205a9.415 9.415 0 0 1 5.308 3.451c.426.513.79 1.1 1.161 1.643a.679.679 0 0 0 .245.229c.7.34 1.382.679 2.077 1a.4.4 0 0 0 .3 0 1.216 1.216 0 0 1 1.927.837 1.319 1.319 0 0 0 .624.956 22.241 22.241 0 0 1 8.443 11.847c.118.4.2.79.284 1.224a1.169 1.169 0 0 1-.332 1.1 15.243 15.243 0 0 1-4.344 3.159 29.033 29.033 0 0 1-7.9 2.575 49.2 49.2 0 0 1-8.546.845 60.072 60.072 0 0 1-9.3-.49 33.961 33.961 0 0 1-9.178-2.5 17.3 17.3 0 0 1-4.968-3.246 1.761 1.761 0 0 1-.537-1.864 21.554 21.554 0 0 1 2.828-6.492 22.636 22.636 0 0 1 6.4-6.54.671.671 0 0 0 .316-.482 1.224 1.224 0 0 1 1.872-.987.371.371 0 0 0 .261 0c.648-.3 1.287-.6 1.927-.924a.79.79 0 0 0 .276-.269 11.176 11.176 0 0 1 4.36-4.3 8.459 8.459 0 0 1 2.883-.9.79.79 0 0 0 .15-.063zm12.092 10.947c-.118.505-.205.964-.324 1.414a13.427 13.427 0 0 1-2.922 5.465 1.2 1.2 0 0 1-1.722.158 1.216 1.216 0 0 1-.118-1.769l.261-.316a10.86 10.86 0 0 0 2.472-6.318.371.371 0 0 0-.229-.411c-1.058-.513-2.1-1.05-3.159-1.58a1.485 1.485 0 0 1-.742-.624 9.841 9.841 0 0 0-1.58-2.267 6.927 6.927 0 0 0-7.669-1.88 7.9 7.9 0 0 0-4.289 4.036 1.619 1.619 0 0 1-.79.735c-.979.458-1.943.948-2.914 1.414a.348.348 0 0 0-.237.411 3.588 3.588 0 0 0 .071.869 10.955 10.955 0 0 0 2.654 5.876 1.248 1.248 0 0 1-.063 1.785 1.232 1.232 0 0 1-1.793-.182 13.427 13.427 0 0 1-2.938-5.616c-.1-.45-.19-.9-.292-1.374a1.154 1.154 0 0 0-.205.15 35.568 35.568 0 0 0-2.606 2.519 19 19 0 0 0-4.123 7.511.387.387 0 0 0 .134.482c.584.426 1.137.916 1.745 1.311a22.2 22.2 0 0 0 6.745 2.7 49.537 49.537 0 0 0 12.637 1.216 47.246 47.246 0 0 0 5.971-.45 34.554 34.554 0 0 0 7.235-1.706 16.586 16.586 0 0 0 5.323-3.025.466.466 0 0 0 .166-.569 19.745 19.745 0 0 0-5.442-8.806 15.843 15.843 0 0 0-1.256-1.161z" class="cls-1" transform="translate(-39.816 -105.67)"/>
        <path id="Path_58" d="M97.069 142.617a25.345 25.345 0 0 1-.466 4.154 15.424 15.424 0 0 1-1.682 4.676c-.45.79-1.043 1.532-1.58 2.3a1.066 1.066 0 0 1-.237.292 3.546 3.546 0 0 0-1.169 2.156c-.395 1.3-.877 2.575-1.39 3.831a17.147 17.147 0 0 1-1.935 3.491c-.561.79-1.161 1.58-1.777 2.29a18.364 18.364 0 0 1-1.58 1.58 21.1 21.1 0 0 1-3.412 2.551 22.233 22.233 0 0 1-4.944 2.235 10.094 10.094 0 0 1-4.3.545 12.755 12.755 0 0 1-1.7-.363 21.664 21.664 0 0 1-4.652-1.856 20.987 20.987 0 0 1-3.894-2.693 21.76 21.76 0 0 1-4.573-5.529 23.837 23.837 0 0 1-2.314-5.379c-.19-.624-.34-1.264-.521-1.9a.79.79 0 0 0-.19-.284 13.245 13.245 0 0 1-2.828-3.9 15.441 15.441 0 0 1-1.358-4.21 22.566 22.566 0 0 1-.292-2.3c-.063-1.027-.079-2.061-.055-3.088a15.464 15.464 0 0 1 .229-2.172 1.2 1.2 0 0 1 1.73-.892c.537.269 1.058.592 1.58.853a30.184 30.184 0 0 0 5.236 2c1.516.419 3.041.79 4.581 1.145 1.058.229 2.148.363 3.222.49s2.306.205 3.467.3a58.579 58.579 0 0 0 6.232.039 30.057 30.057 0 0 0 3.562-.284 45.018 45.018 0 0 0 10.268-2.417c.845-.308 1.682-.663 2.5-1.035a16.744 16.744 0 0 0 1.943-1.011 1.28 1.28 0 0 1 1.982 1.043c.064 1.099.214 2.225.317 3.342zm-44.379-1.358c0 .426-.071.869-.079 1.319a5.275 5.275 0 0 0 .055.924 16.586 16.586 0 0 0 .419 3.159 13.909 13.909 0 0 0 1.516 3.9 9.99 9.99 0 0 0 2.069 2.559 1.627 1.627 0 0 1 .569.9 24.27 24.27 0 0 0 2.97 7.5 19.279 19.279 0 0 0 11.642 8.522 5.758 5.758 0 0 0 2.369.221 17.873 17.873 0 0 0 6.318-2.369 19.074 19.074 0 0 0 7.156-7.59 24.579 24.579 0 0 0 2.219-6.089 1.58 1.58 0 0 1 .482-1 10.062 10.062 0 0 0 2.559-3.309 15.37 15.37 0 0 0 1.58-6.2v-2.488L89 143.376v2.124a11.91 11.91 0 0 1-1.232 5.039 6.721 6.721 0 0 1-4.47 3.578 10.781 10.781 0 0 1-5.165-.111 22 22 0 0 1-4.028-1.366 1.264 1.264 0 0 0-.987-.055c-.79.292-1.58.64-2.369.908a13.214 13.214 0 0 1-6.216.79 6.761 6.761 0 0 1-3.467-1.58 7.772 7.772 0 0 1-2.306-3.6 14.067 14.067 0 0 1-.656-4.826v-.94zm7.819 2.749c.087.956.142 1.84.245 2.717a7.543 7.543 0 0 0 1.027 3.064 4.36 4.36 0 0 0 3.538 2.132 11.057 11.057 0 0 0 2.164-.1 14.752 14.752 0 0 0 3.886-1.122 5.047 5.047 0 0 1 2.7-.6 2.614 2.614 0 0 1 .561.111c1.114.4 2.211.853 3.333 1.224a9.138 9.138 0 0 0 4.249.434 4.344 4.344 0 0 0 2.8-1.509 6.216 6.216 0 0 0 1.279-2.764c.158-.79.245-1.58.332-2.417a11.555 11.555 0 0 0 0-1.169 58.446 58.446 0 0 1-26.119 0z" class="cls-1" transform="translate(-39.604 -112.47)"/>
        <path id="Path_59" d="M59.391 182.685l1.872-.632 4.534-1.54a1.226 1.226 0 1 1 .79 2.322l-7.9 2.67a1.24 1.24 0 0 1-1.761-1.248v-5.584l-.284.182a36.639 36.639 0 0 0-12.795 13.924 41.859 41.859 0 0 0-4.115 11.563c-.229 1.129-.363 2.29-.505 3.436a1.24 1.24 0 0 1-1.414 1.185 1.169 1.169 0 0 1-1.027-1.335c.2-1.5.387-3.017.7-4.494a43.29 43.29 0 0 1 6.129-14.769 38.7 38.7 0 0 1 13.869-12.858 1.224 1.224 0 0 1 1.856.687 1.453 1.453 0 0 1 .039.411v5.734z" class="cls-1" transform="translate(-36.78 -120.306)"/>
        <path id="Path_60" d="M92.086 182.677v-6.066a1.216 1.216 0 0 1 1.864-1.122 38.755 38.755 0 0 1 7.9 5.687 41.275 41.275 0 0 1 10.931 17.376 42.9 42.9 0 0 1 1.856 8.135c0 .284.055.577.079.869a1.224 1.224 0 1 1-2.433.2 34.229 34.229 0 0 0-1.019-5.655 39.909 39.909 0 0 0-9.391-17.463 35.683 35.683 0 0 0-7.108-5.884l-.174-.111v5.592a1.2 1.2 0 0 1-.877 1.287 1.508 1.508 0 0 1-.79 0q-4.02-1.335-8.024-2.709a1.232 1.232 0 1 1 .79-2.314l6.137 2.085z" class="cls-1" transform="translate(-46.689 -120.306)"/>
        <path id="Path_61" d="M93.788 148.877a5.023 5.023 0 0 1-2.922 4.573.711.711 0 0 1-.79-.071.632.632 0 0 1-.237-.75.924.924 0 0 1 .387-.474 3.625 3.625 0 0 0 2.1-3.57.735.735 0 0 1 1.469 0z" class="cls-1" transform="translate(-47.925 -114.536)"/>
        <path id="Path_62" d="M65.556 147.79a.711.711 0 0 1 .719.79 3.862 3.862 0 0 0 .719 2.42 3.775 3.775 0 0 0 1.374 1.114.735.735 0 0 1-.632 1.327 4.8 4.8 0 0 1-2.67-3.08 8.735 8.735 0 0 1-.237-1.817.711.711 0 0 1 .727-.758z" class="cls-1" transform="translate(-42.677 -114.523)"/>
    </g>
</svg>
