<svg xmlns="http://www.w3.org/2000/svg" width="88.003" height="83.638" viewBox="0 0 88.003 83.638">
    <defs>
        <style>
            .cls-1{fill:#fece34}
        </style>
    </defs>
    <g id="icon_technology" transform="translate(.041 .04)">
        <path id="Path_44" d="M152.049 133.753c-.071.344-.137.692-.216 1.036a8.493 8.493 0 0 1-7.056 6.482 8.379 8.379 0 0 1-4.608-.6.41.41 0 0 0-.52.088q-3.021 2.831-6.059 5.64l-.609.569a6.834 6.834 0 0 1-.278 7.836 6.434 6.434 0 0 1-3.607 2.487 6.866 6.866 0 0 1-4.41-.22c.229.542.441 1.027.639 1.513a41.84 41.84 0 0 1 2.646 9.609c.088.6.15 1.208.181 1.812a1.094 1.094 0 0 1-.93 1.124 1.138 1.138 0 0 1-1.323-.8 8.466 8.466 0 0 1-.119-.957 38.995 38.995 0 0 0-8.859-20.162 33.924 33.924 0 0 0-7.576-6.544l-.168-.1v5.287a1.129 1.129 0 0 1-.829 1.217 1.4 1.4 0 0 1-.728 0c-2.527-.838-5.045-1.7-7.563-2.553a1.155 1.155 0 0 1-.754-1.5 1.173 1.173 0 0 1 1.539-.679l5.839 1.984.185.057v-5.729a1.151 1.151 0 0 1 1.79-1.072 36.522 36.522 0 0 1 11.6 10.024c.044.057.084.119.132.176a.375.375 0 0 0 .057.026 6.876 6.876 0 0 1 10.945-4.529l6.487-6.028c-1.989-2.17-2.721-3.669-2.866-5.887l-1.764-.066-7.109-.269a10.1 10.1 0 0 1-1.213-.049.322.322 0 0 0-.362.2 5.071 5.071 0 1 1-5.239-7.334.67.67 0 0 0 .534-.353c1.014-1.663 2.042-3.316 3.065-4.97a.51.51 0 0 0 .035-.071l-1.442-.882-1.407-.882a1.16 1.16 0 0 1-.441-1.764q3.585-5.821 7.175-11.633c.2-.322.392-.644.6-.961a1.142 1.142 0 0 1 1.627-.392q3.426 2.1 6.848 4.225a1.142 1.142 0 0 1 .331 1.663q-1.764 2.853-3.528 5.7l-4.176 6.857a1.169 1.169 0 0 1-1.764.415l-1.764-1.08h-.075l-2.8 4.511a5.151 5.151 0 0 1 3 4.472l10 .366c.128-.41.221-.816.379-1.191a8.28 8.28 0 0 1 7.554-5.526 8.467 8.467 0 0 1 8.82 7.113c.026.159.066.313.1.467zm-2.293-.882a4.422 4.422 0 1 1-.018-.022zm-22.622-12.555l6.641-10.76-4.921-3.052c-2.2 3.6-4.41 7.175-6.637 10.76zm.128 25.912a10.167 10.167 0 1 0-.018-.035zm-7.131-18.08a2.765 2.765 0 1 0 2.725 2.831 2.734 2.734 0 0 0-2.743-2.866z" class="cls-1" transform="translate(-64.087 -87.556)"/>
        <path id="Path_45" d="M66.384 66.966c.388.084.781.154 1.164.256a9.261 9.261 0 0 1 5.071 3.607 6.363 6.363 0 0 1 .542.8 1.5 1.5 0 0 0 .811.723c.534.216 1.045.494 1.557.754a.287.287 0 0 0 .34 0 1.107 1.107 0 0 1 1.764.7 1.64 1.64 0 0 0 .781 1.1 20.951 20.951 0 0 1 7.814 11.082c.11.379.185.767.269 1.155a1.12 1.12 0 0 1-.313 1.036 14.2 14.2 0 0 1-3.775 2.831 26.115 26.115 0 0 1-7.029 2.434 44.729 44.729 0 0 1-8.82.953 59.787 59.787 0 0 1-6.884-.234 34.1 34.1 0 0 1-10.517-2.589 16.109 16.109 0 0 1-4.659-3.088 1.654 1.654 0 0 1-.5-1.764 20.166 20.166 0 0 1 2.646-6.112 21.388 21.388 0 0 1 6.011-6.147.648.648 0 0 0 .3-.441 1.156 1.156 0 0 1 1.764-.935.322.322 0 0 0 .247 0c.609-.282 1.217-.569 1.812-.882a.683.683 0 0 0 .265-.26 10.553 10.553 0 0 1 4.114-4.1A7.845 7.845 0 0 1 63.87 67a.745.745 0 0 0 .137-.057zM52.9 77.135l-.19.137a19.16 19.16 0 0 0-3.2 3.263 18.349 18.349 0 0 0-3.149 6.174.375.375 0 0 0 .137.472c.441.318.825.679 1.261.979a19.3 19.3 0 0 0 5.9 2.619 45.374 45.374 0 0 0 12.758 1.367 45.9 45.9 0 0 0 5.6-.441 32.487 32.487 0 0 0 6.69-1.561 15.717 15.717 0 0 0 5.159-2.893.441.441 0 0 0 .154-.56A18.437 18.437 0 0 0 79.561 79c-.569-.6-1.191-1.138-1.839-1.764-.035.181-.057.278-.075.37a12.731 12.731 0 0 1-3.007 6.174 1.125 1.125 0 0 1-.8.384 1.16 1.16 0 0 1-.882-1.954 10.213 10.213 0 0 0 2.567-6.253.326.326 0 0 0-.2-.362c-1-.49-1.984-1-2.985-1.477a1.38 1.38 0 0 1-.7-.587 9.772 9.772 0 0 0-1.5-2.139 6.48 6.48 0 0 0-7.232-1.764 7.45 7.45 0 0 0-4.026 3.779 1.68 1.68 0 0 1-.816.745c-.922.441-1.826.882-2.743 1.323a.282.282 0 0 0-.185.322c.066.538.1 1.085.194 1.614a10.319 10.319 0 0 0 2.35 4.763 1.16 1.16 0 1 1-1.764 1.5 12.6 12.6 0 0 1-2.738-5.243c-.1-.414-.18-.846-.28-1.296z" class="cls-1" transform="translate(-33.166 -66.98)"/>
        <path id="Path_46" d="M86.291 125.883a18.336 18.336 0 0 1-1.605 7.607 12.674 12.674 0 0 1-2.769 3.916.675.675 0 0 0-.168.331 23.562 23.562 0 0 1-3.969 8.718 20.021 20.021 0 0 1-12.347 7.832 8.057 8.057 0 0 1-3.788-.273 20.285 20.285 0 0 1-9.234-5.358 21.661 21.661 0 0 1-5.058-8.308c-.3-.882-.52-1.764-.785-2.646a.679.679 0 0 0-.15-.278 13.776 13.776 0 0 1-3.823-6.954 20.25 20.25 0 0 1-.353-7.122c.026-.22.049-.441.075-.657a1.147 1.147 0 0 1 1.724-.882 32 32 0 0 0 8.264 3.2 45.341 45.341 0 0 0 10.473 1.354 56.549 56.549 0 0 0 6.862-.238 39.511 39.511 0 0 0 13.6-3.748c.309-.159.617-.326.917-.5a1.146 1.146 0 0 1 1.839.882c.11.977.204 2.075.295 3.124zm-7.545.8v1.543a12.475 12.475 0 0 1-.8 4.41 6.615 6.615 0 0 1-3.74 3.938 8.643 8.643 0 0 1-4.564.379 19.539 19.539 0 0 1-4.935-1.508 1.244 1.244 0 0 0-1.063 0c-.273.123-.556.238-.838.348a15.769 15.769 0 0 1-6.05 1.283 6.721 6.721 0 0 1-4.476-1.662 7.558 7.558 0 0 1-2.112-3.466 14.323 14.323 0 0 1-.542-5.04c0-.238-.071-.3-.273-.375-1.446-.538-2.88-1.094-4.317-1.649-.185-.071-.362-.163-.613-.278v.767a15.792 15.792 0 0 0 1.063 6.531 10.284 10.284 0 0 0 2.831 4.083 1.442 1.442 0 0 1 .406.723 24.254 24.254 0 0 0 2.046 5.733 18 18 0 0 0 11.158 9.257 6.676 6.676 0 0 0 3.687.212 18.067 18.067 0 0 0 12.277-10.092 24.5 24.5 0 0 0 1.72-5.045 1.468 1.468 0 0 1 .4-.758 10.182 10.182 0 0 0 2.712-3.77 15.752 15.752 0 0 0 1.217-6.765c0-.282-.026-.56-.04-.8zm-26.838.6v.966a10.438 10.438 0 0 0 .582 3.351 4.329 4.329 0 0 0 2.791 2.91 6.588 6.588 0 0 0 2.946.163 18.406 18.406 0 0 0 4.67-1.407 3.2 3.2 0 0 1 2.54 0c.415.168.825.353 1.248.512a13.159 13.159 0 0 0 4.793 1.01 4.281 4.281 0 0 0 4.194-2.712 11.025 11.025 0 0 0 .767-4.8 55.039 55.039 0 0 1-24.532 0z" class="cls-1" transform="translate(-32.135 -97.564)"/>
        <path id="Path_47" d="M38.459 187.756a33.427 33.427 0 0 0-5.428 4.189 37.3 37.3 0 0 0-10.482 18.6 29.286 29.286 0 0 0-.785 4.666 1.147 1.147 0 0 1-1.323 1.107 1.1 1.1 0 0 1-.988-1.266c.185-1.42.362-2.844.666-4.242a40.87 40.87 0 0 1 5.781-13.925 36.478 36.478 0 0 1 13.088-12.123 1.151 1.151 0 0 1 1.742.666 1.354 1.354 0 0 1 .04.379v5.733l.785-.256 5.234-1.764a1.151 1.151 0 0 1 1.6 1.182 1.085 1.085 0 0 1-.8.988c-1.649.564-3.3 1.12-4.952 1.68l-2.5.847a1.173 1.173 0 0 1-1.676-1.208z" class="cls-1" transform="translate(-19.48 -132.74)"/>
        <path id="Path_48" d="M112.716 139.158a4.732 4.732 0 0 1-2.756 4.308.679.679 0 0 1-.776-.071.6.6 0 0 1-.216-.714.922.922 0 0 1 .37-.441 3.413 3.413 0 0 0 2-3.338.692.692 0 1 1 1.38 0c.002.066-.002.164-.002.256z" class="cls-1" transform="translate(-69.505 -106.79)"/>
        <path id="Path_49" d="M67.505 138.119a.679.679 0 0 1 .675.745 3.629 3.629 0 0 0 .631 2.2 3.484 3.484 0 0 0 1.323 1.116.692.692 0 1 1-.578 1.257 4.626 4.626 0 0 1-2.646-3.337 7.355 7.355 0 0 1-.11-1.288.679.679 0 0 1 .706-.692z" class="cls-1" transform="translate(-45.955 -106.77)"/>
    </g>
</svg>
