<svg xmlns="http://www.w3.org/2000/svg" id="instagram_2_" width="16.332" height="16.332" viewBox="0 0 16.332 16.332">
    <defs>
        <style>
            .cls-1{fill:#242424}
        </style>
    </defs>
    <g id="Group_10">
        <g id="Group_9">
            <path id="Path_3" d="M11.228 0H5.1A5.1 5.1 0 0 0 0 5.1v6.124a5.1 5.1 0 0 0 5.1 5.1h6.124a5.1 5.1 0 0 0 5.1-5.1V5.1A5.1 5.1 0 0 0 11.228 0zM14.8 11.228a3.576 3.576 0 0 1-3.572 3.572H5.1a3.576 3.576 0 0 1-3.573-3.573V5.1A3.576 3.576 0 0 1 5.1 1.531h6.124A3.576 3.576 0 0 1 14.8 5.1z" class="cls-1"/>
        </g>
    </g>
    <g id="Group_12" transform="translate(4.083 4.083)">
        <g id="Group_11">
            <path id="Path_4" d="M132.083 128a4.083 4.083 0 1 0 4.083 4.083 4.083 4.083 0 0 0-4.083-4.083zm0 6.635a2.552 2.552 0 1 1 2.552-2.552 2.555 2.555 0 0 1-2.552 2.552z" class="cls-1" transform="translate(-128 -128)"/>
        </g>
    </g>
    <g id="Group_14" transform="translate(12.011 3.233)">
        <g id="Group_13">
            <circle id="Ellipse_2" cx=".544" cy=".544" r=".544" class="cls-1"/>
        </g>
    </g>
</svg>
