<svg xmlns="http://www.w3.org/2000/svg" width="81" height="59.119" viewBox="0 0 81 59.119">
    <path fill="#fece34" d="M102.988 121.147h2.592c3.834 1.552 4.773 2.968 4.773 7.17v1.583h2.888v-2.542a5.986 5.986 0 0 1 3.61-5.776l1-.44h2.592a1.061 1.061 0 0 0 .267.173 5.943 5.943 0 0 1 4.376 6.087v2.477h2.888v-2.744a5.87 5.87 0 0 1 3.264-5.387 15.883 15.883 0 0 1 1.5-.607H135c3.805 1.444 4.838 2.975 4.838 7.105v1.7h1.791a2.989 2.989 0 0 1 2.534.722v10.372a2.282 2.282 0 0 1-2.007.722c-.722-.058-1.444 0-2.318 0v32.8a5.9 5.9 0 0 1-11.748.274c-.079-.679-.094-1.365-.144-2.072h-2.8v1.444a5.921 5.921 0 0 1-6.982 5.733c-2.888-.5-4.809-2.888-4.9-6.123 0-.361-.036-.722-.058-1.134h-1.386c-1.625 0-1.4-.195-1.444 1.444a5.921 5.921 0 1 1-11.834 0v-1.343H95.7c0 1.805-.1 3.516-1.249 4.968a5.841 5.841 0 0 1-4.535 2.325 5.574 5.574 0 0 1-3.762-1.235c-2.036-1.538-2.578-3.7-2.368-6.109h-2.892a20.218 20.218 0 0 1-.188 2.635 5.9 5.9 0 0 1-11.668-1.307v-32.25h-2.889l-.1 1.365H63.16v-14.629h2.888l.1 1.357H69v-2.968a5.885 5.885 0 0 1 3.74-5.423c.31-.116.621-.245.931-.368h2.513c4.448 1.357 5.1 4.8 4.636 8.744h2.98V127a5.5 5.5 0 0 1 2.123-4.448 17.481 17.481 0 0 1 2.715-1.394h2.253c3.841 1.6 4.766 3.018 4.766 7.293v1.449h2.888v-2.83a5.95 5.95 0 0 1 3.82-5.553c.198-.11.392-.254.623-.37zm-25.077 29.5v-23.326a2.932 2.932 0 1 0-5.841-.079v46.724a3.762 3.762 0 0 0 .52 1.776 2.816 2.816 0 0 0 3.249 1.184 2.946 2.946 0 0 0 2.058-2.968q.022-11.683.015-23.315zm14.73-.043v-22.836a9.609 9.609 0 0 0 0-1.119 2.888 2.888 0 0 0-2.332-2.477 2.686 2.686 0 0 0-2.953 1.292 5.307 5.307 0 0 0-.534 2.3q-.043 22.8 0 45.6a6.5 6.5 0 0 0 .144 1.444 2.823 2.823 0 0 0 2.332 2.166 2.914 2.914 0 0 0 3.386-3.17q-.036-11.618-.036-23.243zm23.64-.043v23.228a4.138 4.138 0 0 0 .137 1.271 2.888 2.888 0 0 0 3.257 1.94 2.932 2.932 0 0 0 2.4-3.126v-46.546a4.123 4.123 0 0 0-.159-1.191 2.888 2.888 0 0 0-5.632.931q-.007 11.712 0 23.46zm-8.946 0v-23.233a4.022 4.022 0 0 0-.578-2.007 2.744 2.744 0 0 0-3.213-1.025 2.888 2.888 0 0 0-1.978 2.838V173.6a4.585 4.585 0 0 0 .455 2.058 2.765 2.765 0 0 0 3.278 1.264 2.888 2.888 0 0 0 2.051-2.888l-.014-23.5zm29.445 0v-23.71a2.888 2.888 0 0 0-3.986-2.5 2.989 2.989 0 0 0-1.82 3.047v46.37a5.671 5.671 0 0 0 0 .607 2.823 2.823 0 0 0 1.653 2.361 2.89 2.89 0 0 0 4.13-2.823q.036-11.719.022-23.4zm-53.034 19.058v-27.828h-2.809v27.828zm14.715-27.879h-1.668c-1.134 0-1.141 0-1.141 1.1v25.72a1.646 1.646 0 0 0 0 .6c.087.195.274.469.433.477.765.051 1.538 0 2.354 0zm14.7 27.835V141.74h-1.495c-1.444 0-1.314-.188-1.314 1.271v24.34c0 2.484 0 2.491 2.513 2.311a2.015 2.015 0 0 0 .297-.087zm11.993.094h1.675c1.126 0 1.134 0 1.134-1.112v-25.72a1.646 1.646 0 0 0 0-.6c-.087-.188-.274-.462-.433-.469-.765-.051-1.538 0-2.354 0zm-56.111-30.94v-5.776h-2.8v5.776zm14.694 0v-5.776h-2.793v5.776zm14.744-5.776h-1.95c-.621 0-.931.152-.9.852.058.975 0 1.957 0 2.932v2.015h2.83zm14.679 5.82v-5.82h-2.015c-.65 0-.83.152-.809.765.043 1 0 2.015 0 3.018v2.043zm14.795 0v-5.243a.722.722 0 0 0-.455-.53c-.758-.058-1.531 0-2.332 0v5.776zm13.214 0v-5.74h-1.292v5.74z" transform="translate(-63.16 -121.14)"/>
</svg>
