<svg xmlns="http://www.w3.org/2000/svg" width="80" height="80" viewBox="0 0 80 80">
    <defs>
        <style>
            .cls-1{fill:#fece33}
        </style>
    </defs>
    <g id="x4" transform="translate(0 -.225)">
        <path id="Path_69" d="M0 36.381c.233-1.317.466-2.634.776-3.951A39.776 39.776 0 0 1 33.369.825a38.411 38.411 0 0 1 29.644 6.74c9.312 6.662 15.21 15.725 16.607 27.19q2.677 21.38-13.5 35.788a38.653 38.653 0 0 1-21.884 9.528.593.593 0 0 0-.388.155h-7.996c-.155-.077-.388-.155-.543-.232A39.382 39.382 0 0 1 10.244 66.9 39.194 39.194 0 0 1 .7 48c-.233-1.317-.466-2.556-.7-3.8zm76.982 3.8a36.576 36.576 0 1 0 0 .62v-.62z" class="cls-1"/>
        <path id="Path_70" d="M41.835 75.826a33.813 33.813 0 1 1 33.834-33.774v.465a33.738 33.738 0 0 1-33.834 33.309zm0-3.1a30.617 30.617 0 1 0-.233 0z" class="cls-1" transform="translate(-1.792 -1.797)"/>
        <path id="Path_71" fill="#fecf36" d="M26.178 36.95v-7.436h-3.1a1.565 1.565 0 1 1 0-3.1h3.182v-3.33a1.438 1.438 0 0 1 1.086-1.549 1.474 1.474 0 0 1 1.707.542 2.521 2.521 0 0 1 .31 1.007v3.176h7.45v-7.746c0-1.239.621-2.014 1.552-2.014s1.63.775 1.63 2.014v7.669h7.45v-7.9A1.626 1.626 0 0 1 48.76 16.5h.155a1.624 1.624 0 0 1 1.63 1.549v8.211h7.45v-3.021c0-1.162.543-1.782 1.552-1.782a1.556 1.556 0 0 1 1.63 1.782v3.1h3.259a1.565 1.565 0 0 1 1.707 1.394 1.665 1.665 0 0 1-.155.852 1.522 1.522 0 0 1-1.474.93h-3.1c-.078 0-.078.077-.233.077v7.282c.31 0 .7.077 1.009.077h6.51c.466 0 1.009-.077 1.242.155a2.493 2.493 0 0 1 .931 1.394 1.795 1.795 0 0 1-2.25 1.549h-7.369v7.437h8.226a1.587 1.587 0 0 1 1.552 1.394 1.533 1.533 0 0 1-1.319 1.627h-8.381v7.437h3.1c1.086 0 1.862.62 1.862 1.549a1.659 1.659 0 0 1-1.862 1.627h-2.79c-.078 0-.233.077-.31.077a21.693 21.693 0 0 1 0 3.176 2.2 2.2 0 0 1-.931 1.549 1.639 1.639 0 0 1-1.474-.077 2.4 2.4 0 0 1-.7-1.394c-.078-1.007 0-2.092 0-3.176H50.7v8.055a1.554 1.554 0 0 1-1.474 1.627h-.155A1.61 1.61 0 0 1 47.6 69.33V61.2h-7.45v7.746c0 1.394-.621 2.014-1.552 2.014s-1.63-.7-1.63-2.014v-7.672h-7.45v3.1a1.566 1.566 0 0 1-1.318 1.78h-.233a1.638 1.638 0 0 1-1.63-1.627V61.2c-1.086 0-2.1.077-3.1 0a2.122 2.122 0 0 1-1.474-.62 2 2 0 0 1-.233-1.627 1.9 1.9 0 0 1 1.319-.852 23.987 23.987 0 0 1 3.337 0v-7.44c-.388 0-.7-.077-1.009-.077h-6.759a2.051 2.051 0 0 1-1.474-.542 1.852 1.852 0 0 1-.31-1.549 1.784 1.784 0 0 1 1.4-.93c2.406-.077 4.734-.077 7.139-.077h1.009v-7.437c-.31 0-.7-.077-1.009-.077h-6.988A1.651 1.651 0 0 1 16.4 38.5v-.077a1.623 1.623 0 0 1 1.552-1.623h8.226zm10.554-7.437h-6.984c-.155 0-.388.387-.466.62-.078.852 0 1.7 0 2.556v4.183h7.45zm10.787 7.437v-5.19c0-2.246 0-2.246-2.173-2.246h-5.2v7.436zm10.554 0v-6.894a.794.794 0 0 0-.388-.465H50.7v7.359zm-21.341 3.331h-7.45V47.1a.887.887 0 0 0 .621.542c1.164.077 2.328 0 3.492 0h3.259zm10.787 0h-7.373v7.359h6.907a.794.794 0 0 0 .466-.387v-6.972zm3.182 0v7.437h6.984c.155 0 .388-.387.466-.62.078-1.007 0-2.014 0-3.021v-3.718zM36.732 58.253v-7.359H29.36v6.894c0 .155.233.465.388.465zm3.337 0h6.907a.794.794 0 0 0 .466-.387v-6.972h-7.373zm18-7.359H50.7v7.359h6.907a.794.794 0 0 0 .466-.387z" transform="translate(-3.673 -3.668)"/>
    </g>
</svg>
