<svg xmlns="http://www.w3.org/2000/svg" width="42.414" height="79.552" viewBox="0 0 42.414 79.552">
    <defs>
        <style>
            .cls-1{fill:#fece33}
        </style>
    </defs>
    <g id="x7" transform="translate(-.188 -.227)">
        <path id="Path_72" d="M25.6 79.779h-8.4a6.076 6.076 0 0 0-1.22-.287A32.473 32.473 0 0 1 1.2 73.824a2.129 2.129 0 0 1-1-1.937V8.244a2 2 0 0 1 1-1.937 51.934 51.934 0 0 1 5.1-2.942 38.058 38.058 0 0 1 23.247-2.3 29.378 29.378 0 0 1 12.2 5.238 5.659 5.659 0 0 1 .853 1.08c0 .431-.072.861-.072 1.292v64.144a12.492 12.492 0 0 1-.861 1 30.937 30.937 0 0 1-12.413 5.31c-1.146.22-2.438.435-3.654.65zm-5.668-2.727v-39.1a1.49 1.49 0 0 1 1.507-1.363h.072c.933.072 1.435.718 1.435 2.009v38.1c.215 0 .431.072.574.072a31.665 31.665 0 0 0 15.211-4.592 1.9 1.9 0 0 0 .933-1.65V9.463a1.457 1.457 0 0 0-.718-1.435c-1.22-.646-2.3-1.363-3.516-1.937A34.527 34.527 0 0 0 16.412 3.58 29.354 29.354 0 0 0 3.856 8.028a1.413 1.413 0 0 0-.718 1.363v61.348a1.376 1.376 0 0 0 .646 1.292 26.525 26.525 0 0 0 8.538 3.659c2.511.574 4.951.861 7.606 1.363z" class="cls-1"/>
        <path id="Path_73" d="M25.082 33.08a12.074 12.074 0 1 1 .287 0 .218.218 0 0 0-.287 0zm-.144-3.014a9.436 9.436 0 1 0-9.328-9.543 9.495 9.495 0 0 0 9.328 9.543z" class="cls-1" transform="translate(-3.504 -2.306)"/>
    </g>
</svg>
