<svg xmlns="http://www.w3.org/2000/svg" width="36.692" height="79.382" viewBox="0 0 36.692 79.382">
    <g>
        <path fill="#fece32" d="M90 168.521v-20.493c.624-1.348 1.954-.7 2.946-.968v-8.739c-1.049-.175-2.291.318-2.946-.936v-20.312c.624-1.248 1.873-.762 2.984-.955v-6.748c0-1.011.468-1.461 1.473-1.467h3.521c.231 0 .462-.037.762-.056-.968-2.559-1.9-4.994-2.821-7.441-.456-1.211.1-2.016 1.4-2.016H119.4c1.248 0 1.823.8 1.386 1.966l-2.5 6.71c-.094.243-.175.487-.3.836h4.226c1.067 0 1.5.437 1.511 1.492v6.785h1.579a1.248 1.248 0 0 1 1.248.749v20.6c-.624 1.248-1.873.487-2.784.843v8.739h1.534a1.248 1.248 0 0 1 1.248.743v19.713a4.37 4.37 0 0 0 .144.786v.15c-.774.992-1.948.624-3 .768v6.785a1.679 1.679 0 0 1-.911 1.717H93.9a1.692 1.692 0 0 1-.911-1.723c.044-1.567 0-3.121 0-4.7v-2.116c-1.116-.033-2.215.243-2.989-.712zm2.622-1.979h31.492v-15.967c0-.693-.2-.874-.88-.874q-14.906.037-29.8 0c-.693 0-.88.193-.88.88v15.175a6.965 6.965 0 0 1 .068.786zm0-47.728v16.854h30.668c.687 0 .824-.225.818-.861q-.037-7.547 0-15.1c0-.787-.231-.936-.968-.936H93.483zm28.421 19.544H95.618v8.742h25.443zm-22.029-37.353a1.6 1.6 0 0 0 .037.281c1.311 3.464 2.628 6.929 3.92 10.406.162.437.443.456.811.456h9.057a.812.812 0 0 0 .924-.624c.955-2.591 1.941-5.169 2.915-7.753.343-.9.68-1.8 1.049-2.772zm22.079 68.3H95.618v5.843h25.468zm0-58.8H117.3c-.162 0-.393.256-.474.443q-.562 1.373-1.067 2.784a1.436 1.436 0 0 1-1.473 1.042h-11.8a1.436 1.436 0 0 1-1.486-1.022q-.506-1.4-1.067-2.784c-.081-.193-.3-.456-.462-.456-1.248-.037-2.528 0-3.826 0v5.618h25.468z" transform="translate(0 -.24) translate(-90 -98.15)"/>
    </g>
</svg>
